# xmcd
# 
# Track frame offsets:
#     150
#     18452
#     37757
#     56855
#     74415
#     93690
#     113507
#     133115
#     152020
#     169185
#     186200
# 
# Disc length: 2793
# 
# Revision: 4
# Processed by: cddbd v1.5.2PL0 Copyright (c) Steve Scherf et al.
# Submitted via: BonkEnc v1.0
# 
DISCID=930ae70b
DTITLE=BEGIN - Tokyo Ocean
DYEAR=1998
DGENRE=JPop
TTITLE0=陽気な迷子達
TTITLE1=Little Blue Fish
TTITLE2=いっとうはやく
TTITLE3=埋め立て地
TTITLE4=東京Ocean
TTITLE5=愛が走る
TTITLE6=もう話したくない
TTITLE7=Don't you worry
TTITLE8=家へ帰ろう
TTITLE9=防波堤で見た景色
TTITLE10=未来の君へ
EXTD=YEAR: 1998
EXTT0=
EXTT1=
EXTT2=
EXTT3=
EXTT4=
EXTT5=
EXTT6=
EXTT7=
EXTT8=
EXTT9=
EXTT10=
PLAYORDER=
